<mxfile host="app.diagrams.net" agent="Mozilla/5.0 (Windows NT 10.0; Win64; x64) AppleWebKit/537.36 (KHTML, like Gecko) Chrome/134.0.0.0 Safari/537.36" version="26.1.3">
  <diagram name="Страница — 1" id="5XDOROCR2kvGrpsbrqd6">
    <mxGraphModel dx="674" dy="1103" grid="0" gridSize="10" guides="1" tooltips="1" connect="1" arrows="1" fold="1" page="0" pageScale="1" pageWidth="827" pageHeight="1169" math="0" shadow="0">
      <root>
        <mxCell id="0" />
        <mxCell id="1" parent="0" />
        <mxCell id="ERkXkxFaqTjl8pGi7fjD-8" style="edgeStyle=none;curved=1;rounded=0;orthogonalLoop=1;jettySize=auto;html=1;fontSize=12;startSize=8;endSize=8;entryX=1;entryY=1;entryDx=0;entryDy=0;" edge="1" parent="1" source="ERkXkxFaqTjl8pGi7fjD-2" target="ERkXkxFaqTjl8pGi7fjD-3">
          <mxGeometry relative="1" as="geometry">
            <mxPoint x="202" y="-23.5999755859375" as="targetPoint" />
          </mxGeometry>
        </mxCell>
        <mxCell id="ERkXkxFaqTjl8pGi7fjD-9" value="Нажимает Добавить" style="edgeLabel;html=1;align=center;verticalAlign=middle;resizable=0;points=[];fontSize=12;" vertex="1" connectable="0" parent="ERkXkxFaqTjl8pGi7fjD-8">
          <mxGeometry x="0.0764" relative="1" as="geometry">
            <mxPoint as="offset" />
          </mxGeometry>
        </mxCell>
        <mxCell id="ERkXkxFaqTjl8pGi7fjD-2" value="Пользователь" style="shape=umlActor;verticalLabelPosition=bottom;verticalAlign=top;html=1;" vertex="1" parent="1">
          <mxGeometry x="180" y="154" width="30" height="60" as="geometry" />
        </mxCell>
        <mxCell id="ERkXkxFaqTjl8pGi7fjD-10" style="edgeStyle=none;curved=1;rounded=0;orthogonalLoop=1;jettySize=auto;html=1;fontSize=12;startSize=8;endSize=8;exitX=1;exitY=1;exitDx=0;exitDy=0;" edge="1" parent="1" source="ERkXkxFaqTjl8pGi7fjD-3">
          <mxGeometry relative="1" as="geometry">
            <mxPoint x="463" y="-17" as="targetPoint" />
          </mxGeometry>
        </mxCell>
        <mxCell id="ERkXkxFaqTjl8pGi7fjD-11" value="t" style="edgeLabel;html=1;align=center;verticalAlign=middle;resizable=0;points=[];fontSize=12;" vertex="1" connectable="0" parent="ERkXkxFaqTjl8pGi7fjD-10">
          <mxGeometry x="-0.0605" relative="1" as="geometry">
            <mxPoint as="offset" />
          </mxGeometry>
        </mxCell>
        <mxCell id="ERkXkxFaqTjl8pGi7fjD-12" value="createPerson(данные)" style="edgeLabel;html=1;align=center;verticalAlign=middle;resizable=0;points=[];fontSize=12;" vertex="1" connectable="0" parent="ERkXkxFaqTjl8pGi7fjD-10">
          <mxGeometry x="-0.0711" y="-2" relative="1" as="geometry">
            <mxPoint as="offset" />
          </mxGeometry>
        </mxCell>
        <mxCell id="ERkXkxFaqTjl8pGi7fjD-3" value="&lt;b&gt;Интерфейс&lt;/b&gt;" style="html=1;whiteSpace=wrap;" vertex="1" parent="1">
          <mxGeometry x="153" y="-75" width="110" height="50" as="geometry" />
        </mxCell>
        <mxCell id="ERkXkxFaqTjl8pGi7fjD-4" value="PersonService&amp;nbsp;" style="rounded=0;whiteSpace=wrap;html=1;" vertex="1" parent="1">
          <mxGeometry x="466" y="-73" width="120" height="60" as="geometry" />
        </mxCell>
        <mxCell id="ERkXkxFaqTjl8pGi7fjD-7" value="База данных" style="shape=cylinder3;whiteSpace=wrap;html=1;boundedLbl=1;backgroundOutline=1;size=15;" vertex="1" parent="1">
          <mxGeometry x="394" y="90" width="60" height="80" as="geometry" />
        </mxCell>
        <mxCell id="ERkXkxFaqTjl8pGi7fjD-13" style="edgeStyle=none;curved=1;rounded=0;orthogonalLoop=1;jettySize=auto;html=1;entryX=0.145;entryY=0;entryDx=0;entryDy=4.35;entryPerimeter=0;fontSize=12;startSize=8;endSize=8;" edge="1" parent="1" source="ERkXkxFaqTjl8pGi7fjD-4" target="ERkXkxFaqTjl8pGi7fjD-7">
          <mxGeometry relative="1" as="geometry" />
        </mxCell>
        <mxCell id="ERkXkxFaqTjl8pGi7fjD-14" value="Insert Запрос" style="edgeLabel;html=1;align=center;verticalAlign=middle;resizable=0;points=[];fontSize=12;" vertex="1" connectable="0" parent="ERkXkxFaqTjl8pGi7fjD-13">
          <mxGeometry x="-0.0809" y="-2" relative="1" as="geometry">
            <mxPoint as="offset" />
          </mxGeometry>
        </mxCell>
        <mxCell id="ERkXkxFaqTjl8pGi7fjD-15" value="" style="endArrow=block;dashed=1;endFill=0;endSize=12;html=1;rounded=0;fontSize=12;curved=1;exitX=1;exitY=0;exitDx=0;exitDy=27.5;exitPerimeter=0;entryX=0.873;entryY=0.997;entryDx=0;entryDy=0;entryPerimeter=0;" edge="1" parent="1" source="ERkXkxFaqTjl8pGi7fjD-7" target="ERkXkxFaqTjl8pGi7fjD-4">
          <mxGeometry width="160" relative="1" as="geometry">
            <mxPoint x="240" y="111" as="sourcePoint" />
            <mxPoint x="400" y="111" as="targetPoint" />
          </mxGeometry>
        </mxCell>
        <mxCell id="ERkXkxFaqTjl8pGi7fjD-16" value="Подтверждение" style="edgeLabel;html=1;align=center;verticalAlign=middle;resizable=0;points=[];fontSize=12;" vertex="1" connectable="0" parent="ERkXkxFaqTjl8pGi7fjD-15">
          <mxGeometry x="-0.1267" y="1" relative="1" as="geometry">
            <mxPoint as="offset" />
          </mxGeometry>
        </mxCell>
        <mxCell id="ERkXkxFaqTjl8pGi7fjD-17" value="" style="endArrow=block;dashed=1;endFill=0;endSize=12;html=1;rounded=0;fontSize=12;curved=1;exitX=0;exitY=0;exitDx=0;exitDy=0;entryX=1;entryY=0;entryDx=0;entryDy=0;" edge="1" parent="1" source="ERkXkxFaqTjl8pGi7fjD-4" target="ERkXkxFaqTjl8pGi7fjD-3">
          <mxGeometry width="160" relative="1" as="geometry">
            <mxPoint x="240" y="111" as="sourcePoint" />
            <mxPoint x="400" y="111" as="targetPoint" />
          </mxGeometry>
        </mxCell>
        <mxCell id="ERkXkxFaqTjl8pGi7fjD-18" value="Успех" style="edgeLabel;html=1;align=center;verticalAlign=middle;resizable=0;points=[];fontSize=12;" vertex="1" connectable="0" parent="ERkXkxFaqTjl8pGi7fjD-17">
          <mxGeometry x="0.3321" y="-1" relative="1" as="geometry">
            <mxPoint as="offset" />
          </mxGeometry>
        </mxCell>
        <mxCell id="ERkXkxFaqTjl8pGi7fjD-19" value="" style="endArrow=block;dashed=1;endFill=0;endSize=12;html=1;rounded=0;fontSize=12;curved=1;exitX=0.409;exitY=1.028;exitDx=0;exitDy=0;entryX=0.25;entryY=0.1;entryDx=0;entryDy=0;entryPerimeter=0;exitPerimeter=0;" edge="1" parent="1" source="ERkXkxFaqTjl8pGi7fjD-3" target="ERkXkxFaqTjl8pGi7fjD-2">
          <mxGeometry width="160" relative="1" as="geometry">
            <mxPoint x="240" y="111" as="sourcePoint" />
            <mxPoint x="400" y="111" as="targetPoint" />
          </mxGeometry>
        </mxCell>
        <mxCell id="ERkXkxFaqTjl8pGi7fjD-20" value="Запись добавлена" style="edgeLabel;html=1;align=center;verticalAlign=middle;resizable=0;points=[];fontSize=12;" vertex="1" connectable="0" parent="ERkXkxFaqTjl8pGi7fjD-19">
          <mxGeometry x="-0.533" y="2" relative="1" as="geometry">
            <mxPoint as="offset" />
          </mxGeometry>
        </mxCell>
        <mxCell id="ERkXkxFaqTjl8pGi7fjD-21" value="&lt;div&gt;Объяснение для каждой стрелки:&lt;/div&gt;&lt;div&gt;1. Пользователь нажимает кнопку в интерфейсе&lt;/div&gt;&lt;div&gt;2. Интерфейс отправляет данные в сервисный слой&lt;/div&gt;&lt;div&gt;3. Сервис формирует SQL-запрос к базе&lt;/div&gt;&lt;div&gt;4. База данных подтверждает успешное сохранение&lt;/div&gt;&lt;div&gt;5. Сервис возвращает результат интерфейсу&lt;/div&gt;&lt;div&gt;6. Интерфейс показывает уведомление пользователю&lt;/div&gt;" style="rounded=0;whiteSpace=wrap;html=1;" vertex="1" parent="1">
          <mxGeometry x="276" y="252" width="318" height="144" as="geometry" />
        </mxCell>
      </root>
    </mxGraphModel>
  </diagram>
</mxfile>
